<?xml version="1.0" encoding="windows-1252"?>
<!-- Generator: Adobe Illustrator 19.0.0, SVG Export Plug-In . SVG Version: 6.00 Build 0)  -->
<svg version="1.1" id="Capa_1" xmlns="http://www.w3.org/2000/svg" xmlns:xlink="http://www.w3.org/1999/xlink" x="0px" y="0px" viewBox="0 0 480 480" style="enable-background:new 0 0 480 480;" xml:space="preserve">
<g>
	<g>
		<path d="M416,144h-64c-8.684,0.029-17.117,2.914-24,8.208V104c-0.026-22.08-17.92-39.974-40-40h-80    c-8.684,0.029-17.117,2.914-24,8.208V40c-0.026-22.08-17.92-39.974-40-40H64C41.92,0.026,24.026,17.92,24,40v416    c0,13.255,10.745,24,24,24h112c5.923-0.021,11.627-2.245,16-6.24c4.373,3.995,10.077,6.219,16,6.24h112    c5.923-0.021,11.627-2.245,16-6.24c4.373,3.995,10.077,6.219,16,6.24h96c13.255,0,24-10.745,24-24V184    C455.974,161.92,438.08,144.026,416,144z M168,456c0,4.418-3.582,8-8,8H48c-4.418,0-8-3.582-8-8V40c0-13.255,10.745-24,24-24h80    c13.255,0,24,10.745,24,24V456z M312,456c0,4.418-3.582,8-8,8H192c-4.418,0-8-3.582-8-8V104c0-13.255,10.745-24,24-24h80    c13.255,0,24,10.745,24,24V456z M440,456c0,4.418-3.582,8-8,8h-96c-4.418,0-8-3.582-8-8V184c0-13.255,10.745-24,24-24h64    c13.255,0,24,10.745,24,24V456z"/>
	</g>
</g>
<g>
	<g>
		<path d="M136,64H72c-8.837,0-16,7.163-16,16v112c0,8.837,7.163,16,16,16h64c8.837,0,16-7.163,16-16V80    C152,71.163,144.837,64,136,64z M136,192H72V80h64V192z"/>
	</g>
</g>
<g>
	<g>
		<path d="M280,128h-64c-8.837,0-16,7.163-16,16v112c0,8.837,7.163,16,16,16h64c8.837,0,16-7.163,16-16V144    C296,135.163,288.837,128,280,128z M280,256h-64V144h64V256z"/>
	</g>
</g>
<g>
	<g>
		<path d="M408,200h-48c-8.837,0-16,7.163-16,16v80c0,8.837,7.163,16,16,16h48c8.837,0,16-7.163,16-16v-80    C424,207.163,416.837,200,408,200z M408,296h-48v-80h48V296z"/>
	</g>
</g>
<g>
	<g>
		<rect x="56" y="240" width="96" height="16"/>
	</g>
</g>
<g>
	<g>
		<rect x="56" y="288" width="96" height="16"/>
	</g>
</g>
<g>
	<g>
		<rect x="200" y="304" width="96" height="16"/>
	</g>
</g>
<g>
	<g>
		<rect x="200" y="352" width="96" height="16"/>
	</g>
</g>
<g>
	<g>
		<rect x="344" y="344" width="80" height="16"/>
	</g>
</g>
<g>
	<g>
		<rect x="344" y="392" width="80" height="16"/>
	</g>
</g>
<g>
</g>
<g>
</g>
<g>
</g>
<g>
</g>
<g>
</g>
<g>
</g>
<g>
</g>
<g>
</g>
<g>
</g>
<g>
</g>
<g>
</g>
<g>
</g>
<g>
</g>
<g>
</g>
<g>
</g>
</svg>