<?xml version="1.0" encoding="windows-1252"?>
<!-- Generator: Adobe Illustrator 19.0.0, SVG Export Plug-In . SVG Version: 6.00 Build 0)  -->
<svg version="1.1" id="Capa_1" xmlns="http://www.w3.org/2000/svg" xmlns:xlink="http://www.w3.org/1999/xlink" x="0px" y="0px" viewBox="0 0 480 480" style="enable-background:new 0 0 480 480;" xml:space="preserve">
<g>
	<g>
		<g>
			<path d="M240,0C107.452,0,0,107.452,0,240s107.452,240,240,240s240-107.452,240-240C479.85,107.514,372.486,0.15,240,0z M240,464     C116.288,464,16,363.712,16,240S116.288,16,240,16s224,100.288,224,224C463.859,363.653,363.653,463.859,240,464z"/>
			<path d="M240,32C125.125,32,32,125.125,32,240s93.125,208,208,208s208-93.125,208-208C447.872,125.178,354.822,32.128,240,32z      M240,432c-106.039,0-192-85.961-192-192S133.961,48,240,48s192,85.961,192,192C431.877,345.987,345.987,431.877,240,432z"/>
			<path d="M352,280c0-39.765-32.236-72-72-72c-2.842,0-5.682,0.168-8.504,0.504c4.697-39.486-23.506-75.303-62.992-80     c-39.486-4.697-75.303,23.506-80,62.992c-4.697,39.486,23.506,75.303,62.992,80c2.822,0.336,5.662,0.504,8.504,0.504     c2.839-0.001,5.676-0.166,8.496-0.496c-0.33,2.82-0.495,5.657-0.496,8.496c0,39.764,32.236,72,72,72     C319.765,352,352,319.764,352,280z M296.457,333.52c-5.332,1.642-10.878,2.478-16.457,2.48     c-30.928,0.004-56.003-25.064-56.008-55.992c-0.001-5.589,0.835-11.146,2.48-16.488c1.299-4.223-1.071-8.699-5.294-9.998     c-0.763-0.235-1.556-0.354-2.354-0.354c-0.813-0.002-1.622,0.117-2.4,0.352c-29.542,9.066-60.839-7.533-69.905-37.075     c-9.066-29.542,7.533-60.839,37.075-69.905c29.542-9.066,60.839,7.533,69.905,37.075c3.286,10.709,3.283,22.158-0.011,32.865     c-1.302,4.222,1.066,8.7,5.288,10.002c1.538,0.474,3.183,0.473,4.72-0.002c29.558-9.102,60.899,7.481,70,37.039     S326.015,324.418,296.457,333.52z"/>
			<path d="M328,192c22.091,0,40-17.909,40-40s-17.909-40-40-40c-22.091,0-40,17.909-40,40C288.026,174.08,305.92,191.974,328,192z      M328,128c13.255,0,24,10.745,24,24s-10.745,24-24,24s-24-10.745-24-24S314.745,128,328,128z"/>
			<path d="M152,288c-22.091,0-40,17.909-40,40c0,22.091,17.909,40,40,40s40-17.909,40-40C191.974,305.92,174.08,288.026,152,288z      M152,352c-13.255,0-24-10.745-24-24s10.745-24,24-24s24,10.745,24,24S165.255,352,152,352z"/>
			<path d="M384,216c-13.255,0-24,10.745-24,24s10.745,24,24,24s24-10.745,24-24S397.255,216,384,216z M384,248     c-4.418,0-8-3.582-8-8s3.582-8,8-8s8,3.582,8,8S388.418,248,384,248z"/>
			<path d="M88,216c-13.255,0-24,10.745-24,24s10.745,24,24,24s24-10.745,24-24S101.255,216,88,216z M88,248c-4.418,0-8-3.582-8-8     s3.582-8,8-8s8,3.582,8,8S92.418,248,88,248z"/>
			<path d="M240,104c13.255,0,24-10.745,24-24s-10.745-24-24-24s-24,10.745-24,24S226.745,104,240,104z M240,72c4.418,0,8,3.582,8,8     s-3.582,8-8,8s-8-3.582-8-8S235.582,72,240,72z"/>
			<path d="M240,368c-13.255,0-24,10.745-24,24s10.745,24,24,24s24-10.745,24-24S253.255,368,240,368z M240,400     c-4.418,0-8-3.582-8-8s3.582-8,8-8s8,3.582,8,8S244.418,400,240,400z"/>
			<path d="M352,328c-13.255,0-24,10.745-24,24s10.745,24,24,24s24-10.745,24-24S365.255,328,352,328z M352,360     c-4.418,0-8-3.582-8-8s3.582-8,8-8s8,3.582,8,8S356.418,360,352,360z"/>
			<path d="M128,152c13.255,0,24-10.745,24-24s-10.745-24-24-24s-24,10.745-24,24S114.745,152,128,152z M128,120     c4.418,0,8,3.582,8,8s-3.582,8-8,8s-8-3.582-8-8S123.582,120,128,120z"/>
		</g>
	</g>
</g>
<g>
</g>
<g>
</g>
<g>
</g>
<g>
</g>
<g>
</g>
<g>
</g>
<g>
</g>
<g>
</g>
<g>
</g>
<g>
</g>
<g>
</g>
<g>
</g>
<g>
</g>
<g>
</g>
<g>
</g>
</svg>