<?xml version="1.0" encoding="windows-1252"?>
<!-- Generator: Adobe Illustrator 19.0.0, SVG Export Plug-In . SVG Version: 6.00 Build 0)  -->
<svg version="1.1" id="Layer_1" xmlns="http://www.w3.org/2000/svg" xmlns:xlink="http://www.w3.org/1999/xlink" x="0px" y="0px" viewBox="0 0 512.001 512.001" style="enable-background:new 0 0 512.001 512.001;" xml:space="preserve">
<g>
	<rect x="48.001" style="fill:#1D1D1B;" width="416" height="16.001"/>
	<path style="fill:#1D1D1B;" d="M432.001,216H208v208h224.001L432.001,216L432.001,216z M416,408H224v-176h192V408z"/>
	<rect x="104" y="384.005" style="fill:#1D1D1B;" width="16.001" height="32"/>
	<rect x="88.002" y="216.004" style="fill:#1D1D1B;" width="95.996" height="16.001"/>
	<rect x="88.002" y="240.006" style="fill:#1D1D1B;" width="95.996" height="16.001"/>
	<rect x="240.006" y="367.997" style="fill:#1D1D1B;" width="159.997" height="16.001"/>
	<path style="fill:#1D1D1B;" d="M492.944,104l-39.999-79.999H59.056l-40,79.999H0v16.001h16.001v80h480v-80h16.001V104H492.944z    M68.943,40h374.113l31.999,64H36.944L68.943,40z M480,184H32v-8H480V184z M480,160H32v-40H480V160z"/>
	<path style="fill:#1D1D1B;" d="M464,208h-16.001v288H192V272H80V496h-16V208h-16v288H0v16.001h512V496h-48.001V208H464z    M176.001,496H96V288H176v208H176.001z"/>
	<path style="fill:#1D1D1B;" d="M304,360c26.807,0,49.818-16.566,59.331-40h4.67c17.644,0,31.999-14.355,31.999-32   c0-17.644-14.355-32-31.999-32H240v40C240,331.29,268.71,360,304,360z M368.001,296v-24c8.821,0,15.999,7.177,15.999,16   c0,8.822-7.177,16.001-15.999,16.001h-0.498C367.832,301.378,368.001,298.71,368.001,296z M256,272.001h96V296   c0,26.468-21.532,48-48.001,48C277.533,344,256,322.468,256,296V272.001L256,272.001z"/>
	<rect x="208" y="440.001" style="fill:#1D1D1B;" width="15.999" height="16.001"/>
	<rect x="240.006" y="440.001" style="fill:#1D1D1B;" width="16.001" height="16.001"/>
	<rect x="272.001" y="440.001" style="fill:#1D1D1B;" width="16.001" height="16.001"/>
</g>
<g>
</g>
<g>
</g>
<g>
</g>
<g>
</g>
<g>
</g>
<g>
</g>
<g>
</g>
<g>
</g>
<g>
</g>
<g>
</g>
<g>
</g>
<g>
</g>
<g>
</g>
<g>
</g>
<g>
</g>
</svg>