<?xml version="1.0" encoding="iso-8859-1"?>
<!-- Generator: Adobe Illustrator 19.0.0, SVG Export Plug-In . SVG Version: 6.00 Build 0)  -->
<svg version="1.1" id="Capa_1" xmlns="http://www.w3.org/2000/svg" xmlns:xlink="http://www.w3.org/1999/xlink" x="0px" y="0px"
	 viewBox="0 0 512 512" style="enable-background:new 0 0 512 512;" xml:space="preserve">
<g>
	<g>
		<path d="M336,83c-5.52,0-10,4.48-10,10s4.48,10,10,10c5.52,0,10-4.48,10-10S341.52,83,336,83z"/>
	</g>
</g>
<g>
	<g>
		<path d="M336,143c-5.52,0-10,4.48-10,10s4.48,10,10,10c5.52,0,10-4.48,10-10S341.52,143,336,143z"/>
	</g>
</g>
<g>
	<g>
		<path d="M336,203c-5.52,0-10,4.48-10,10s4.48,10,10,10c5.52,0,10-4.48,10-10S341.52,203,336,203z"/>
	</g>
</g>
<g>
	<g>
		<path d="M256,326c-5.52,0-10,4.48-10,10c0,5.52,4.48,10,10,10s10-4.48,10-10C266,330.48,261.52,326,256,326z"/>
	</g>
</g>
<g>
	<g>
		<path d="M482,0H30C13.458,0,0,13.458,0,30v326c0,16.542,13.458,30,30,30h173.407l-15.349,66H156c-16.542,0-30,13.458-30,30v20
			c0,5.523,4.477,10,10,10h240c5.523,0,10-4.477,10-10v-20c0-16.542-13.458-30-30-30h-32.059l-15.349-66H482
			c16.542,0,30-13.458,30-30V30C512,13.458,498.542,0,482,0z M315.934,472c0.019,0,0.038,0.002,0.057,0.002
			c0.014,0,0.029-0.002,0.043-0.002H356c5.514,0,10,4.486,10,10v10H146v-10c0-5.514,4.486-10,10-10h39.966
			c0.014,0,0.029,0.002,0.043,0.002c0.019,0,0.038-0.002,0.057-0.002H315.934z M208.592,452l15.349-66h64.117l15.349,66H208.592z
			 M492,356c0,5.514-4.486,10-10,10H30c-5.514,0-10-4.486-10-10v-53h472V356z M492,283H20V30c0-5.514,4.486-10,10-10h452
			c5.514,0,10,4.486,10,10V283z"/>
	</g>
</g>
<g>
	<g>
		<path d="M442,83h-66c-5.523,0-10,4.477-10,10s4.477,10,10,10h66c5.523,0,10-4.477,10-10S447.523,83,442,83z"/>
	</g>
</g>
<g>
	<g>
		<path d="M442,143h-66c-5.523,0-10,4.477-10,10s4.477,10,10,10h66c5.523,0,10-4.477,10-10S447.523,143,442,143z"/>
	</g>
</g>
<g>
	<g>
		<path d="M442,203h-66c-5.523,0-10,4.477-10,10s4.477,10,10,10h66c5.523,0,10-4.477,10-10S447.523,203,442,203z"/>
	</g>
</g>
<g>
	<g>
		<path d="M185.604,130.214C184.364,125.94,180.45,123,176,123s-8.364,2.94-9.604,7.214C161.611,146.709,146,201.428,146,213
			c0,16.542,13.458,30,30,30s30-13.458,30-30C206,201.428,190.389,146.709,185.604,130.214z M176,223c-5.514,0-10-4.486-10-9.996
			c0.038-4.087,4.338-21.823,10-42.877c5.662,21.054,9.961,38.789,10,42.877C185.998,218.516,181.513,223,176,223z"/>
	</g>
</g>
<g>
	<g>
		<path d="M253.787,95.225c-0.002-0.002-0.004-0.004-0.006-0.007c-0.002-0.002-0.005-0.004-0.007-0.006
			C232.999,74.44,205.379,63,176,63c-29.379,0-56.999,11.44-77.775,32.213c-0.002,0.002-0.004,0.004-0.007,0.006
			c-0.002,0.002-0.004,0.005-0.006,0.007C77.44,116.001,66,143.621,66,173c0,29.379,11.44,56.999,32.213,77.774
			c0.002,0.002,0.004,0.005,0.006,0.007c1.441,1.441,3.213,2.346,5.071,2.724c0.6,0.122,1.208,0.185,1.818,0.196
			c0.061,0.001,0.122,0.009,0.183,0.009c0.061,0,0.122-0.008,0.183-0.009c2.498-0.046,4.982-1.014,6.888-2.92l14.14-14.14
			c3.905-3.905,3.905-10.237,0-14.143c-3.905-3.905-10.237-3.905-14.143,0l-6.669,6.669C95.016,215.86,88.429,199.957,86.566,183H96
			c5.523,0,10-4.477,10-10s-4.477-10-10-10h-9.434c1.863-16.957,8.451-32.86,19.124-46.168l6.669,6.669
			c1.953,1.953,4.512,2.929,7.071,2.929c2.559,0,5.119-0.976,7.071-2.929c3.905-3.905,3.905-10.237,0-14.143l-6.669-6.669
			C133.14,92.016,149.043,85.429,166,83.566V93c0,5.523,4.477,10,10,10s10-4.477,10-10v-9.434
			c16.957,1.863,32.86,8.451,46.168,19.124l-6.669,6.669c-3.905,3.905-3.905,10.237,0,14.143c1.953,1.953,4.512,2.929,7.071,2.929
			s5.119-0.976,7.071-2.929l6.669-6.669c10.673,13.308,17.261,29.211,19.124,46.168H256c-5.523,0-10,4.477-10,10
			c0,5.523,4.477,10,10,10h9.434c-1.863,16.957-8.451,32.86-19.124,46.168l-6.669-6.669c-3.905-3.905-10.237-3.905-14.143,0
			c-3.905,3.905-3.905,10.237,0,14.143l14.14,14.14c1.157,1.157,2.53,1.963,3.987,2.434c1.002,0.324,2.042,0.495,3.085,0.495
			c0.32,0,0.64-0.015,0.958-0.046c2.231-0.214,4.404-1.174,6.113-2.883c0.002-0.002,0.004-0.005,0.006-0.007
			C274.56,229.999,286,202.379,286,173C286,143.621,274.56,116.001,253.787,95.225z"/>
	</g>
</g>
<g>
</g>
<g>
</g>
<g>
</g>
<g>
</g>
<g>
</g>
<g>
</g>
<g>
</g>
<g>
</g>
<g>
</g>
<g>
</g>
<g>
</g>
<g>
</g>
<g>
</g>
<g>
</g>
<g>
</g>
</svg>
