<?xml version="1.0" encoding="iso-8859-1"?>
<!-- Generator: Adobe Illustrator 19.0.0, SVG Export Plug-In . SVG Version: 6.00 Build 0)  -->
<svg version="1.1" id="Capa_1" xmlns="http://www.w3.org/2000/svg" xmlns:xlink="http://www.w3.org/1999/xlink" x="0px" y="0px"
	 viewBox="0 0 512 512" style="enable-background:new 0 0 512 512;" xml:space="preserve">
<g>
	<g>
		<circle cx="165.01" cy="436.984" r="14.999"/>
	</g>
</g>
<g>
	<g>
		<path d="M510.391,490.251L355.626,181.999h68.945c6.192,17.457,22.864,29.998,42.418,29.998c24.812,0,44.997-20.186,44.997-44.997
			c0-24.812-20.186-44.997-44.997-44.997c-19.554,0-36.226,12.541-42.417,29.998h-84.007
			c-0.699-1.392-71.905-143.225-72.274-143.932c-5.664-10.832-21.255-10.718-26.716,0.254l-42.02,84.388
			c-3.176-1.011,3.84-0.707-112.124-0.707c-6.192-17.458-22.864-29.998-42.417-29.998c-24.812,0-44.997,20.186-44.997,44.997
			s20.186,44.997,44.997,44.997c19.554,0,36.226-12.541,42.417-29.998h97.539l-44.81,89.995H87.43
			c-6.192-17.457-22.864-29.998-42.418-29.998c-24.812,0-44.997,20.186-44.997,44.997c0,24.812,20.186,44.997,44.997,44.997
			c19.554,0,36.226-12.541,42.418-29.998h37.792L1.588,490.296c-4.963,9.967,2.311,21.685,13.427,21.685h481.972
			C508.144,511.981,515.387,500.203,510.391,490.251z M466.989,152.002c8.271,0,14.999,6.729,14.999,14.999S475.259,182,466.989,182
			s-14.999-6.729-14.999-14.999S458.718,152.002,466.989,152.002z M45.014,122.004c-8.271,0-14.999-6.729-14.999-14.999
			s6.729-14.999,14.999-14.999s14.999,6.729,14.999,14.999S53.284,122.004,45.014,122.004z M45.014,241.997
			c-8.271,0-14.999-6.729-14.999-14.999s6.729-14.999,14.999-14.999s14.999,6.729,14.999,14.999S53.284,241.997,45.014,241.997z
			 M39.239,481.983l28.277-56.791c22.355,2.475,44.891-5.26,63.349-22.092c21.52-19.627,48.258-19.628,69.78,0
			c11.832,10.791,25.23,17.862,39.356,20.881v58.002H39.239z M240.002,392.814c-6.707-2.444-13.169-6.432-19.142-11.878
			c-32.96-30.059-77.248-30.059-110.209,0c-8.67,7.908-18.293,12.689-28.164,14.191l31.436-63.135h126.079V392.814z
			 M240.002,301.993H128.861l24.877-49.961c20.468,29.694,64.482,29.37,84.495-0.649c0.544-0.815,1.138-1.578,1.77-2.297V301.993z
			 M240.002,214.511c-10.797,3.506-20.278,10.553-26.729,20.232c-8.344,12.515-26.679,12.535-35.037,0
			c-2.88-4.319-6.335-8.116-10.255-11.315L188.608,182h51.394V214.511z M240.002,152.002h-36.457l36.457-73.218V152.002z
			 M270,481.983V78.312l202.672,403.67H270z"/>
	</g>
</g>
<g>
</g>
<g>
</g>
<g>
</g>
<g>
</g>
<g>
</g>
<g>
</g>
<g>
</g>
<g>
</g>
<g>
</g>
<g>
</g>
<g>
</g>
<g>
</g>
<g>
</g>
<g>
</g>
<g>
</g>
</svg>
