<?xml version="1.0" encoding="iso-8859-1"?>
<!-- Generator: Adobe Illustrator 19.0.0, SVG Export Plug-In . SVG Version: 6.00 Build 0)  -->
<svg version="1.1" id="Capa_1" xmlns="http://www.w3.org/2000/svg" xmlns:xlink="http://www.w3.org/1999/xlink" x="0px" y="0px"
	 viewBox="0 0 512 512" style="enable-background:new 0 0 512 512;" xml:space="preserve">
<g>
	<g>
		<path d="M489.804,343.227c-14.314-14.313-33.344-22.196-53.584-22.196h-4.003c18.045-29.924,38.851-61.766,61.293-91.276
			l0.001-0.002c4.618-6.075,4.163-14.163-1.108-19.668c-5.271-5.504-13.329-6.312-19.598-1.962
			c-28.03,19.445-64.903,51.663-102.324,103.381v-69.539c14.198-3.394,24.788-16.182,24.788-31.404v-68.936
			c0-4.143-3.357-7.5-7.5-7.5s-7.5,3.357-7.5,7.5v68.936c0,9.519-7.73,17.264-17.242,17.292c-0.016,0-0.03-0.002-0.046-0.002
			c-0.017,0-0.034,0.002-0.051,0.002c-9.515-0.025-17.248-7.771-17.248-17.292V87.197c0-9.536,7.758-17.294,17.294-17.294
			c9.535,0,17.293,7.758,17.293,17.294v23.177c0,4.143,3.357,7.5,7.5,7.5s7.5-3.357,7.5-7.5V87.197
			c0-15.223-10.59-28.011-24.788-31.404v-8.874c0-4.143-3.357-7.5-7.5-7.5s-7.5,3.357-7.5,7.5v8.872
			c-14.203,3.39-24.799,16.18-24.799,31.406v123.362c0,15.226,10.596,28.017,24.799,31.406v79.063H263.5v-79.064
			c14.2-3.392,24.793-16.18,24.793-31.404v-10.516c6.209-8.836,12.444-17.389,18.558-25.428c4.618-6.075,4.163-14.163-1.108-19.668
			c-4.687-4.895-11.575-6.064-17.449-3.209V87.197c0-15.225-10.593-28.013-24.793-31.404v-8.874c0-4.143-3.357-7.5-7.5-7.5
			s-7.5,3.357-7.5,7.5v8.874c-14.2,3.392-24.793,16.18-24.793,31.404v120.617c-22.577,24.229-43.718,52.122-62.982,83.085
			c-1.404-2.26-2.809-4.498-4.215-6.699c0.002-0.065,0.01-0.128,0.01-0.193v-42.042c14.203-3.39,24.799-16.179,24.799-31.405V87.197
			c0-15.226-10.596-28.016-24.799-31.405v-8.873c0-4.143-3.357-7.5-7.5-7.5s-7.5,3.357-7.5,7.5v8.875
			c-14.198,3.394-24.788,16.181-24.788,31.403V210.56c0,15.223,10.59,28.01,24.788,31.403v19.909
			c-38.762-54.953-77.245-88.758-106.257-108.884c-6.269-4.35-14.328-3.54-19.598,1.962c-5.271,5.506-5.726,13.594-1.106,19.67
			c15.134,19.9,30.726,42.478,46.343,67.104c2.219,3.498,6.852,4.535,10.351,2.317c3.498-2.219,4.535-6.853,2.317-10.351
			c-15.844-24.983-31.681-47.913-47.07-68.149c-0.035-0.046-0.062-0.085-0.08-0.116c0.043-0.066,0.113-0.14,0.178-0.186
			c0.03,0.017,0.069,0.041,0.116,0.073c34.133,23.679,81.914,67.096,127.429,143.622c0.079,0.144,0.161,0.285,0.25,0.423
			c7.314,12.318,14.568,25.489,21.697,39.574c0.376,0.742,0.694,1.507,0.953,2.286H140.31c-3.844-7.542-8.409-16.332-13.602-26.051
			c-0.063-0.125-0.128-0.248-0.197-0.369c-9.355-17.497-20.739-37.993-33.665-59.717c-2.117-3.559-6.721-4.729-10.28-2.61
			c-3.559,2.119-4.729,6.721-2.61,10.28c10.211,17.164,19.451,33.551,27.475,48.277H75.78C33.995,321.029,0,355.023,0,396.81
			c0,20.246,7.884,39.273,22.196,53.574c14.315,14.313,33.344,22.196,53.584,22.196h67.6c4.143,0,7.5-3.357,7.5-7.5
			s-3.357-7.5-7.5-7.5h-67.6c-16.233,0-31.496-6.322-42.979-17.806C21.322,428.305,15,413.047,15,396.81
			c0-33.514,27.266-60.779,60.78-60.779h39.717c3.128,5.894,6.003,11.403,8.607,16.457h-6.435c-4.143,0-7.5,3.357-7.5,7.5
			s3.357,7.5,7.5,7.5h216.923c-5.384,9.467-10.723,19.387-15.992,29.796c-1.459,2.878-2.444,5.937-2.969,9.071H234.77
			c-4.143,0-7.5,3.357-7.5,7.5s3.357,7.5,7.5,7.5h178.29c4.143,0,7.5-3.357,7.5-7.5s-3.357-7.5-7.5-7.5h-28.441
			c4.095-7.932,8.761-16.801,13.964-26.414c-0.098,0.485-0.151,0.986-0.151,1.5c0,4.143,3.357,7.5,7.5,7.5h26.619
			c4.143,0,7.5-3.357,7.5-7.5s-3.357-7.5-7.5-7.5h-26.619c-2.05,0-3.906,0.824-5.26,2.157c6.763-12.413,14.352-25.928,22.635-40.068
			h12.913c16.233,0,31.496,6.322,42.979,17.806C490.678,365.305,497,380.565,497,396.81c0,33.509-27.266,60.771-60.78,60.771h-261.6
			c-4.143,0-7.5,3.357-7.5,7.5s3.357,7.5,7.5,7.5h261.6c41.785,0,75.78-33.99,75.78-75.771
			C512,376.557,504.116,357.526,489.804,343.227z M288.293,169.887c2.207-1.62,4.353-3.156,6.401-4.574
			c0.048-0.032,0.087-0.057,0.117-0.073c0.064,0.046,0.135,0.119,0.178,0.186c-0.019,0.03-0.044,0.069-0.079,0.115
			c-2.192,2.882-4.402,5.846-6.617,8.845V169.887z M149.07,227.851c-0.017,0-0.034-0.002-0.051-0.002
			c-0.016,0-0.03,0.002-0.046,0.002c-9.511-0.028-17.242-7.772-17.242-17.29V87.197c0-9.535,7.758-17.293,17.293-17.293
			c9.536,0,17.294,7.758,17.294,17.293V210.56C166.318,220.08,158.585,227.827,149.07,227.851z M194.799,324.969
			c-2.518,4.713-4.911,9.25-7.17,13.582c-5.987-11.665-12.059-22.72-18.181-33.186c17.804-29.437,37.301-56.123,58.114-79.52
			c3.51,6.505,9.187,11.673,16.058,14.536c-19.102,30.554-35.671,59.973-48.807,84.561
			C194.808,324.951,194.803,324.961,194.799,324.969z M248.5,352.487h-51.198c2.653-5.154,5.525-10.656,8.601-16.457H248.5V352.487z
			 M248.5,321.029h-34.533c9.962-18.288,21.579-38.726,34.533-59.995V321.029z M256,227.849c-0.013,0-0.026,0.002-0.04,0.002
			c-0.01,0-0.019,0-0.029,0c-9.503-0.038-17.224-7.778-17.224-17.29V87.197c0-9.535,7.758-17.293,17.293-17.293
			c9.535,0,17.293,7.758,17.293,17.293v110.305c-0.001,0.042,0,0.084,0,0.125v12.933c0,9.519-7.732,17.264-17.245,17.291
			C256.032,227.851,256.016,227.849,256,227.849z M263.5,352.487v-16.457h90.187c-3.442,5.31-6.877,10.794-10.301,16.457H263.5z
			 M412.565,324.711c-0.057,0.096-0.116,0.189-0.169,0.287c-18.724,31.755-34.072,60.629-44.638,81.358h-36.733v-0.002
			c0.26-0.782,0.579-1.549,0.956-2.294c7.177-14.18,14.48-27.433,21.844-39.821c0.18-0.261,0.341-0.536,0.488-0.819
			c6.348-10.643,12.738-20.641,19.129-30.035c0.349-0.41,0.656-0.857,0.911-1.336c39.012-56.993,77.95-91.448,107.002-111.602
			c0.048-0.032,0.087-0.057,0.117-0.073c0.064,0.046,0.135,0.119,0.178,0.186c-0.019,0.031-0.045,0.07-0.08,0.117l0.001-0.002
			C455.886,254.449,432.347,291.177,412.565,324.711z"/>
	</g>
</g>
<g>
	<g>
		<path d="M119.716,400.584h-26.62c-4.143,0-7.5,3.357-7.5,7.5s3.357,7.5,7.5,7.5h26.62c4.143,0,7.5-3.357,7.5-7.5
			S123.859,400.584,119.716,400.584z"/>
	</g>
</g>
<g>
</g>
<g>
</g>
<g>
</g>
<g>
</g>
<g>
</g>
<g>
</g>
<g>
</g>
<g>
</g>
<g>
</g>
<g>
</g>
<g>
</g>
<g>
</g>
<g>
</g>
<g>
</g>
<g>
</g>
</svg>
