<?xml version="1.0" encoding="iso-8859-1"?>
<!-- Generator: Adobe Illustrator 19.0.0, SVG Export Plug-In . SVG Version: 6.00 Build 0)  -->
<svg version="1.1" id="Capa_1" xmlns="http://www.w3.org/2000/svg" xmlns:xlink="http://www.w3.org/1999/xlink" x="0px" y="0px"
	 viewBox="0 0 512 512" style="enable-background:new 0 0 512 512;" xml:space="preserve">
<g>
	<g>
		<rect x="117.333" y="437.333" width="277.333" height="21.333"/>
	</g>
</g>
<g>
	<g>
		<path d="M309.333,0H202.667C196.776,0,192,4.776,192,10.667v42.667C192,59.224,196.776,64,202.667,64h106.667
			C315.224,64,320,59.224,320,53.333V10.667C320,4.776,315.224,0,309.333,0z M298.667,42.667h-85.333V21.333h85.333V42.667z"/>
	</g>
</g>
<g>
	<g>
		<path d="M501.333,42.667H10.667C4.776,42.667,0,47.442,0,53.333V96c0,5.891,4.776,10.667,10.667,10.667H192V85.333H21.333V64
			h469.333v21.333H320v21.333h181.333c5.891,0,10.667-4.776,10.667-10.667V53.333C512,47.442,507.224,42.667,501.333,42.667z"/>
	</g>
</g>
<g>
	<g>
		<path d="M469.333,128v245.333h-74.667c-5.891,0-10.667,4.776-10.667,10.667v117.333c0,5.891,4.776,10.667,10.667,10.667h42.667
			c5.891,0,10.667-4.776,10.667-10.667V394.667h21.333c11.782,0,21.333-9.551,21.333-21.333V128H469.333z M426.667,490.667h-21.333
			v-96h21.333V490.667z"/>
	</g>
</g>
<g>
	<g>
		<path d="M117.333,373.333H42.667V128H21.333v245.333c0,11.782,9.551,21.333,21.333,21.333H64v106.667
			C64,507.224,68.776,512,74.667,512h42.667c5.891,0,10.667-4.776,10.667-10.667V384C128,378.109,123.224,373.333,117.333,373.333z
			 M106.667,490.667H85.333v-96h21.333V490.667z"/>
	</g>
</g>
<g>
	<g>
		<path d="M341.333,352H170.667c-5.891,0-10.667,4.776-10.667,10.667v42.667c0,5.891,4.776,10.667,10.667,10.667h170.667
			c5.891,0,10.667-4.776,10.667-10.667v-42.667C352,356.776,347.224,352,341.333,352z M330.667,394.667H181.333v-21.333h149.333
			V394.667z"/>
	</g>
</g>
<g>
	<g>
		<rect x="117.333" y="373.333" width="53.333" height="21.333"/>
	</g>
</g>
<g>
	<g>
		<rect x="341.333" y="373.333" width="53.333" height="21.333"/>
	</g>
</g>
<g>
	<g>
		<path d="M288,149.333c-2.829,0.001-5.541,1.125-7.541,3.125l-99.125,99.125l-45.792-45.792c-2-2.001-4.713-3.125-7.541-3.125
			H85.333V224h38.251l50.208,50.208c2,2.001,4.713,3.125,7.541,3.125c2.829-0.001,5.541-1.125,7.541-3.125l103.541-103.541h134.251
			v-21.333H288z"/>
	</g>
</g>
<g transform="matrix(0.70711 -0.70711 0.70711 0.70711 -7.598 29.657)">
	<g>
		<polygon points="147.024,417.447 147.024,396.114 97.35,396.114 97.35,346.439 76.016,346.439 76.016,396.114 26.342,396.114 
			26.342,417.447 76.016,417.447 76.016,467.122 97.35,467.122 97.35,417.447 		"/>
	</g>
</g>
<g>
</g>
<g>
</g>
<g>
</g>
<g>
</g>
<g>
</g>
<g>
</g>
<g>
</g>
<g>
</g>
<g>
</g>
<g>
</g>
<g>
</g>
<g>
</g>
<g>
</g>
<g>
</g>
<g>
</g>
</svg>
