<?xml version="1.0" encoding="iso-8859-1"?>
<!-- Generator: Adobe Illustrator 19.0.0, SVG Export Plug-In . SVG Version: 6.00 Build 0)  -->
<svg version="1.1" id="Capa_1" xmlns="http://www.w3.org/2000/svg" xmlns:xlink="http://www.w3.org/1999/xlink" x="0px" y="0px"
	 viewBox="0 0 512 512" style="enable-background:new 0 0 512 512;" xml:space="preserve">
<g>
	<g>
		<path d="M416.126,368.889c-5.524,0-10.008,4.483-10.008,10.008c0,5.524,4.483,10.008,10.008,10.008s10.008-4.483,10.008-10.008
			C426.134,373.372,421.65,368.889,416.126,368.889z"/>
	</g>
</g>
<g>
	<g>
		<path d="M256.001,431.938c-5.524,0-10.008,4.483-10.008,10.008c0,5.524,4.484,10.008,10.008,10.008
			c5.524,0,10.008-4.483,10.008-10.008C266.009,436.421,261.525,431.938,256.001,431.938z"/>
	</g>
</g>
<g>
	<g>
		<path d="M95.875,368.889c-5.524,0-10.008,4.483-10.008,10.008c0,5.524,4.483,10.008,10.008,10.008s10.008-4.483,10.008-10.008
			C105.883,373.372,101.401,368.889,95.875,368.889z"/>
	</g>
</g>
<g>
	<g>
		<path d="M336.064,66.653c-22.073,0-40.031,17.958-40.031,40.031s17.957,40.031,40.031,40.031
			c22.073,0,40.031-17.958,40.031-40.031S358.137,66.653,336.064,66.653z M336.064,126.7c-11.037,0-20.016-8.979-20.016-20.016
			c0-11.037,8.979-20.016,20.016-20.016c11.037,0,20.016,8.979,20.016,20.016C356.079,117.721,347.1,126.7,336.064,126.7z"/>
	</g>
</g>
<g>
	<g>
		<path d="M175.939,66.653c-22.073,0-40.031,17.958-40.031,40.031s17.957,40.031,40.031,40.031
			c22.073,0,40.031-17.958,40.031-40.031S198.012,66.653,175.939,66.653z M175.939,126.7c-11.037,0-20.016-8.979-20.016-20.016
			c0-11.037,8.979-20.016,20.016-20.016c11.037,0,20.016,8.979,20.016,20.016C195.954,117.721,186.975,126.7,175.939,126.7z"/>
	</g>
</g>
<g>
	<g>
		<path d="M436.142,328.858H396.11c-11.256,0-21.654,3.738-30.023,10.035v-82.091h10.008c2.977,0,5.8-1.325,7.701-3.616
			c1.9-2.292,2.684-5.31,2.135-8.235l-6.758-36.041l29.267-16.898c2.299-1.327,3.976-3.514,4.663-6.077
			c0.688-2.564,0.327-5.295-1-7.594l-13.038-22.581c4.469-5.765,8.108-12.135,10.882-19.052h26.194
			c5.527,0,10.008-4.482,10.008-10.008V86.669c0-5.526-4.481-10.008-10.008-10.008h-26.194c-2.774-6.916-6.413-13.287-10.882-19.052
			l13.038-22.581c1.327-2.299,1.687-5.03,1-7.594c-0.687-2.564-2.364-4.75-4.663-6.077L373.772,1.342
			c-4.786-2.762-10.906-1.124-13.671,3.662l-12.988,22.491c-7.628-1.171-14.475-1.171-22.103,0L312.024,5.004
			c-2.764-4.786-8.885-6.425-13.671-3.662l-34.667,20.016c-2.299,1.327-3.976,3.514-4.663,6.077c-0.688,2.564-0.327,5.295,1,7.594
			l13.038,22.581c-4.469,5.764-8.108,12.135-10.882,19.052H249.82c-2.774-6.916-6.413-13.287-10.882-19.052l13.038-22.581
			c1.327-2.299,1.687-5.03,1-7.594c-0.687-2.564-2.364-4.75-4.663-6.077L213.646,1.342c-4.786-2.762-10.906-1.124-13.671,3.662
			l-12.988,22.491c-7.628-1.171-14.475-1.171-22.103,0L151.899,5.004c-2.764-4.786-8.885-6.425-13.671-3.662l-34.667,20.016
			c-2.299,1.327-3.976,3.514-4.663,6.077c-0.688,2.564-0.327,5.295,1,7.594l13.038,22.581c-4.47,5.764-8.108,12.135-10.883,19.052
			H75.86c-5.527,0-10.008,4.481-10.008,10.008V126.7c0,5.526,4.48,10.008,10.008,10.008h26.194
			c2.774,6.916,6.413,13.287,10.883,19.052L99.899,178.34c-1.327,2.299-1.687,5.03-1,7.594c0.687,2.564,2.364,4.75,4.663,6.077
			l29.267,16.898l-6.758,36.041c-0.548,2.926,0.234,5.944,2.135,8.235c1.901,2.291,4.725,3.616,7.701,3.616h10.008v82.091
			c-8.37-6.297-18.768-10.035-30.023-10.035H75.859c-27.592,0-50.039,22.447-50.039,50.039v103.08
			C25.82,498.532,39.288,512,55.843,512c16.555,0,30.023-13.469,30.023-30.023v-53.041h20.016v53.041
			c0,16.555,13.469,30.023,30.023,30.023c16.555,0,30.023-13.469,30.023-30.023v-54.763c3.132,1.111,6.499,1.721,10.008,1.721
			s6.875-0.61,10.008-1.721v14.731c0,27.592,22.448,50.039,50.039,50.039h40.031c27.591,0,50.039-22.447,50.039-50.039v-14.731
			c3.132,1.111,6.499,1.721,10.008,1.721c3.509,0,6.875-0.61,10.008-1.721v54.763c0,16.555,13.469,30.023,30.023,30.023
			c16.555,0,30.025-13.469,30.025-30.023v-53.041h20.016v53.041c0,16.555,13.469,30.023,30.023,30.023
			c16.555,0,30.023-13.469,30.023-30.023v-103.08C486.181,351.305,463.733,328.858,436.142,328.858z M139.571,189.69l-17.335-10.009
			l11.569-20.036c2.211-3.829,1.646-8.656-1.389-11.872c-6.308-6.685-10.914-14.745-13.689-23.959
			c-1.273-4.228-5.167-7.122-9.582-7.122H85.868V96.678h23.278c4.415,0,8.309-2.894,9.582-7.122
			c2.774-9.213,7.381-17.274,13.689-23.959c3.035-3.216,3.6-8.043,1.389-11.872L122.237,33.69l17.334-10.008l11.559,20.016
			c2.214,3.833,6.681,5.76,10.987,4.731c5.05-1.203,9.57-1.788,13.823-1.788s8.773,0.585,13.823,1.788
			c4.309,1.031,8.774-0.898,10.987-4.731l11.559-20.016l17.333,10.008l-11.569,20.036c-2.211,3.829-1.647,8.656,1.389,11.872
			c6.308,6.685,10.914,14.745,13.689,23.959c1.273,4.228,5.167,7.122,9.582,7.122h26.541c4.415,0,8.31-2.894,9.583-7.122
			c2.774-9.213,7.381-17.274,13.689-23.959c3.035-3.216,3.6-8.043,1.389-11.872L282.364,33.69l17.333-10.008l11.559,20.016
			c2.214,3.833,6.684,5.76,10.987,4.731c5.05-1.203,9.57-1.788,13.823-1.788s8.773,0.585,13.823,1.788
			c4.31,1.031,8.774-0.898,10.987-4.731l11.559-20.016l17.333,10.008l-11.569,20.036c-2.211,3.829-1.647,8.656,1.389,11.872
			c6.308,6.685,10.914,14.745,13.689,23.959c1.273,4.228,5.167,7.122,9.582,7.122h23.278v20.016h-23.278
			c-4.415,0-8.31,2.894-9.582,7.122c-2.774,9.213-7.381,17.274-13.689,23.959c-3.035,3.217-3.6,8.043-1.389,11.872l11.569,20.036
			l-17.334,10.009l-11.557-20.016c-2.213-3.833-6.681-5.76-10.988-4.732c-5.05,1.203-9.57,1.788-13.823,1.788
			s-8.773-0.585-13.823-1.788c-4.306-1.027-8.775,0.897-10.988,4.732l-11.557,20.016l-17.334-10.009l11.569-20.036
			c2.211-3.829,1.647-8.656-1.389-11.872c-6.308-6.685-10.914-14.745-13.689-23.959c-1.273-4.228-5.167-7.122-9.583-7.122h-26.541
			c-4.415,0-8.31,2.894-9.582,7.122c-2.774,9.213-7.381,17.274-13.689,23.959c-3.035,3.217-3.6,8.043-1.389,11.872l11.569,20.036
			l-17.335,10.009l-11.557-20.016c-2.213-3.833-6.681-5.76-10.988-4.732c-5.05,1.203-9.57,1.788-13.823,1.788
			c-4.252,0-8.773-0.585-13.823-1.788c-4.306-1.027-8.774,0.897-10.988,4.732L139.571,189.69z M215.97,308.842
			c-3.509,0-6.875,0.61-10.008,1.721v-53.762h10.008c2.977,0,5.799-1.325,7.701-3.616c1.901-2.292,2.684-5.31,2.135-8.235
			l-6.758-36.041l29.267-16.898c2.299-1.327,3.976-3.514,4.663-6.077c0.688-2.564,0.327-5.295-1-7.594l-13.038-22.581
			c4.469-5.765,8.108-12.135,10.883-19.052h12.359c2.774,6.916,6.413,13.287,10.882,19.052l-13.038,22.581
			c-1.327,2.299-1.687,5.03-1,7.594c0.687,2.564,2.364,4.75,4.663,6.077l29.267,16.898l-6.758,36.041
			c-0.548,2.926,0.234,5.944,2.135,8.235c1.901,2.291,4.725,3.616,7.701,3.616h10.008v53.762c-3.132-1.111-6.499-1.721-10.008-1.721
			c-16.555,0-30.023,13.469-30.023,30.023v50.039h-20.016v-50.039C245.993,322.311,232.524,308.842,215.97,308.842z
			 M145.915,398.912v83.065c0,5.518-4.489,10.008-10.008,10.008s-10.008-4.489-10.008-10.008v-63.049
			c0-5.526-4.48-10.008-10.008-10.008H75.861c-5.527,0-10.008,4.482-10.008,10.008v63.049c0,5.518-4.49,10.008-10.008,10.008
			c-5.518,0-10.008-4.489-10.008-10.008v-103.08c0-16.555,13.469-30.023,30.023-30.023h40.031c16.555,0,30.023,13.469,30.023,30.023
			V398.912z M185.947,398.912c0,5.518-4.49,10.008-10.008,10.008s-10.008-4.49-10.008-10.008V256.801h20.016V398.912z
			 M195.955,236.786h-40.032h-7.957l6.001-32l10.922-18.912c7.628,1.171,14.474,1.171,22.102,0l10.922,18.912l6.001,32H195.955z
			 M306.04,398.912v43.034c0,16.555-13.469,30.023-30.023,30.023h-40.031c-16.555,0-30.023-13.469-30.023-30.023v-43.034v-60.047
			c0-5.518,4.49-10.008,10.008-10.008s10.008,4.489,10.008,10.008v60.047c0,5.526,4.48,10.008,10.008,10.008h40.031
			c5.527,0,10.008-4.482,10.008-10.008v-60.047c0-5.518,4.49-10.008,10.008-10.008s10.008,4.489,10.008,10.008V398.912z
			 M346.071,398.912c0,5.518-4.49,10.008-10.008,10.008s-10.008-4.49-10.008-10.008V256.801h20.016V398.912z M356.079,236.786
			h-40.031h-7.957l6.001-32l10.922-18.912c7.628,1.171,14.474,1.171,22.102,0l10.922,18.918l5.999,31.994H356.079z M466.165,481.977
			c0,5.518-4.49,10.008-10.008,10.008s-10.008-4.489-10.008-10.008v-63.049c0-5.526-4.481-10.008-10.008-10.008H396.11
			c-5.527,0-10.008,4.482-10.008,10.008v63.049c0,5.518-4.49,10.008-10.008,10.008s-10.008-4.489-10.008-10.008v-83.065v-20.016
			c0-16.555,13.469-30.023,30.023-30.023h40.031c16.555,0,30.023,13.469,30.023,30.023V481.977z"/>
	</g>
</g>
<g>
</g>
<g>
</g>
<g>
</g>
<g>
</g>
<g>
</g>
<g>
</g>
<g>
</g>
<g>
</g>
<g>
</g>
<g>
</g>
<g>
</g>
<g>
</g>
<g>
</g>
<g>
</g>
<g>
</g>
</svg>
