<?xml version="1.0" encoding="iso-8859-1"?>
<!-- Generator: Adobe Illustrator 19.0.0, SVG Export Plug-In . SVG Version: 6.00 Build 0)  -->
<svg version="1.1" id="Capa_1" xmlns="http://www.w3.org/2000/svg" xmlns:xlink="http://www.w3.org/1999/xlink" x="0px" y="0px"
	 viewBox="0 0 512 512" style="enable-background:new 0 0 512 512;" xml:space="preserve">
<g>
	<g>
		<path d="M512,255.997c0-37.336-38.518-69.932-99.234-90.555c1.516-7.607,2.766-15.084,3.669-22.367
			C423.157,88.88,411.639,50.247,384,34.293c-27.639-15.94-66.843-6.616-110.426,26.301c-5.854,4.422-11.704,9.244-17.532,14.362
			c-48.22-42.272-95.711-59.338-128.033-40.663c-3.039,1.748-5.912,3.819-8.588,6.148c-4.757-1.609-9.831-2.519-15.125-2.519
			c-26.139,0-47.407,21.268-47.407,47.407c0,22.761,16.132,41.815,37.56,46.363c0.85,10.785,2.451,22.067,4.789,33.748
			C38.521,186.064,0,218.66,0,255.997c0,37.331,38.509,69.922,99.208,90.546C86.734,409.398,95.683,459.039,128,477.701
			c8.805,5.079,18.722,7.514,29.482,7.514c28.757,0,63.461-17.426,98.551-48.184c5.831,5.12,11.685,9.944,17.542,14.369
			c29.685,22.417,57.343,33.903,80.694,33.903c10.935,0,20.926-2.518,29.732-7.606c6.049-3.49,11.368-8.13,15.896-13.806
			c2.546,0.425,5.143,0.699,7.808,0.699c26.139,0,47.407-21.269,47.407-47.407c0-23.093-16.609-42.357-38.5-46.539
			c-0.921-7.801-2.201-15.837-3.861-24.086C473.475,325.935,512,293.336,512,255.997z M285.009,75.729
			c26.111-19.727,50.213-30.014,69.259-30.014c7.621,0,14.445,1.648,20.25,5.005c20.324,11.727,28.741,44.542,23.102,90.023
			c-0.771,6.218-1.792,12.581-3.042,19.063c-22.664-6.375-47.849-11.199-74.859-14.167c-16.076-21.905-32.845-41.304-49.699-57.746
			C275.009,83.57,280.009,79.505,285.009,75.729z M139.509,279.275c5.553,11.24,11.523,22.473,17.954,33.611
			c6.433,11.14,13.153,21.944,20.095,32.365c-19.919-2.897-38.694-6.852-55.877-11.686
			C126.088,316.246,132.049,297.998,139.509,279.275z M139.431,232.777c-7.433-18.581-13.401-36.824-17.822-54.328
			c17.204-4.844,36.002-8.804,55.949-11.706c-6.942,10.42-13.662,21.225-20.095,32.365
			C150.963,210.37,144.958,221.614,139.431,232.777z M173.889,303.405c-9.06-15.694-17.243-31.553-24.461-47.317
			c7.176-15.743,15.319-31.662,24.461-47.498c9.081-15.727,18.741-30.727,28.792-44.875c17.201-1.653,35.058-2.532,53.319-2.532
			c18.248,0,36.09,0.878,53.28,2.528c10.025,14.062,19.708,29.078,28.831,44.88c9.049,15.674,17.218,31.591,24.463,47.458
			c-7.227,15.773-15.384,31.634-24.463,47.356c-9.123,15.803-18.806,30.817-28.829,44.88c-17.19,1.65-35.035,2.528-53.282,2.528
			c-18.262,0-36.118-0.88-53.319-2.531C192.63,334.131,182.97,319.131,173.889,303.405z M354.537,312.886
			c6.433-11.14,12.431-22.36,17.982-33.583c7.396,18.53,13.391,36.77,17.824,54.255c-17.19,4.838-35.972,8.795-55.903,11.693
			C341.326,334.903,348.051,324.121,354.537,312.886z M354.537,199.108c-6.482-11.226-13.19-22.021-20.072-32.361
			c19.949,2.903,38.75,6.866,55.951,11.71c-4.428,17.566-10.447,35.823-17.87,54.374
			C366.975,221.524,360.968,210.249,354.537,199.108z M255.949,100.821c12.796,12.477,25.625,26.775,38.113,42.6
			c-12.396-0.788-25.099-1.201-38.062-1.201c-12.998,0-25.736,0.416-38.164,1.208C230.176,127.746,242.965,113.423,255.949,100.821z
			 M137.482,50.719c24.593-14.22,63.657,1.521,104.53,37.22c-17.104,16.698-33.84,36.156-49.664,57.692
			c-27.023,2.966-52.222,7.789-74.896,14.166c-1.861-9.645-3.215-19.001-3.984-27.966c21.764-4.287,38.236-23.5,38.236-46.5
			c0-13.477-5.681-25.628-14.741-34.269C137.141,50.955,137.303,50.822,137.482,50.719z M75.852,85.33
			c0-15.685,12.759-28.444,28.444-28.444S132.74,69.645,132.74,85.33s-12.759,28.444-28.444,28.444
			C88.611,113.775,75.852,101.016,75.852,85.33z M18.963,255.997c0-28.41,33.178-54.377,84.549-71.927
			c5.905,23.091,14.373,47.323,25.107,71.826c-10.956,24.914-19.352,49.156-25.169,72.006
			C52.114,310.354,18.963,284.395,18.963,255.997z M137.482,461.275c-24.583-14.194-30.468-55.874-20.014-109.073
			c22.671,6.374,47.864,11.195,74.88,14.162c15.824,21.532,32.558,40.99,49.66,57.687
			C201.139,459.737,162.076,475.473,137.482,461.275z M255.945,411.171c-12.982-12.602-25.768-26.924-38.109-42.604
			c12.428,0.793,25.167,1.208,38.164,1.208c12.963,0,25.667-0.413,38.062-1.201C281.574,384.398,268.743,398.695,255.945,411.171z
			 M374.518,461.275c-20.296,11.755-52.944,2.611-89.509-25.009c-5.005-3.781-10.012-7.852-15.007-12.18
			c16.857-16.44,33.628-35.82,49.706-57.727c27-2.968,52.178-7.788,74.835-14.16c1.239,6.372,2.262,12.618,3.026,18.695
			c-21.282,4.657-37.273,23.631-37.273,46.289c0,16.266,8.243,30.639,20.764,39.182
			C379.028,458.256,376.859,459.923,374.518,461.275z M436.148,417.182c0,15.685-12.759,28.444-28.444,28.444
			s-28.444-12.759-28.444-28.444s12.759-28.444,28.444-28.444S436.148,401.497,436.148,417.182z M408.465,327.932
			c-5.933-23.11-14.412-47.395-25.111-71.861c10.764-24.517,19.264-48.785,25.183-71.985c51.342,17.55,84.5,43.51,84.5,71.911
			C493.037,284.41,459.849,310.384,408.465,327.932z"/>
	</g>
</g>
<g>
	<g>
		<path d="M256,208.59c-26.139,0-47.407,21.268-47.407,47.407c0,26.139,21.269,47.407,47.407,47.407s47.407-21.269,47.407-47.407
			C303.407,229.858,282.139,208.59,256,208.59z M256,284.442c-15.685,0-28.444-12.759-28.444-28.444s12.759-28.444,28.444-28.444
			s28.444,12.759,28.444,28.444S271.685,284.442,256,284.442z"/>
	</g>
</g>
<g>
</g>
<g>
</g>
<g>
</g>
<g>
</g>
<g>
</g>
<g>
</g>
<g>
</g>
<g>
</g>
<g>
</g>
<g>
</g>
<g>
</g>
<g>
</g>
<g>
</g>
<g>
</g>
<g>
</g>
</svg>
