<?xml version="1.0" encoding="iso-8859-1"?>
<!-- Generator: Adobe Illustrator 19.0.0, SVG Export Plug-In . SVG Version: 6.00 Build 0)  -->
<svg version="1.1" id="Capa_1" xmlns="http://www.w3.org/2000/svg" xmlns:xlink="http://www.w3.org/1999/xlink" x="0px" y="0px"
	 viewBox="0 0 480 480" style="enable-background:new 0 0 480 480;" xml:space="preserve">
<g>
	<g>
		<rect x="200" y="224" width="16" height="16"/>
	</g>
</g>
<g>
	<g>
		<rect x="264" y="224" width="16" height="16"/>
	</g>
</g>
<g>
	<g>
		<rect x="200" y="256" width="16" height="16"/>
	</g>
</g>
<g>
	<g>
		<rect x="264" y="256" width="16" height="16"/>
	</g>
</g>
<g>
	<g>
		<rect x="200" y="288" width="16" height="16"/>
	</g>
</g>
<g>
	<g>
		<rect x="264" y="288" width="16" height="16"/>
	</g>
</g>
<g>
	<g>
		<rect x="200" y="320" width="16" height="16"/>
	</g>
</g>
<g>
	<g>
		<rect x="264" y="320" width="16" height="16"/>
	</g>
</g>
<g>
	<g>
		<rect x="232" y="224" width="16" height="16"/>
	</g>
</g>
<g>
	<g>
		<rect x="232" y="256" width="16" height="16"/>
	</g>
</g>
<g>
	<g>
		<rect x="232" y="288" width="16" height="16"/>
	</g>
</g>
<g>
	<g>
		<rect x="232" y="320" width="16" height="16"/>
	</g>
</g>
<g>
	<g>
		<rect x="328" y="336" width="16" height="16"/>
	</g>
</g>
<g>
	<g>
		<rect x="360" y="336" width="16" height="16"/>
	</g>
</g>
<g>
	<g>
		<rect x="328" y="368" width="16" height="16"/>
	</g>
</g>
<g>
	<g>
		<rect x="360" y="368" width="16" height="16"/>
	</g>
</g>
<g>
	<g>
		<rect x="104" y="336" width="16" height="16"/>
	</g>
</g>
<g>
	<g>
		<rect x="136" y="336" width="16" height="16"/>
	</g>
</g>
<g>
	<g>
		<rect x="104" y="368" width="16" height="16"/>
	</g>
</g>
<g>
	<g>
		<rect x="136" y="368" width="16" height="16"/>
	</g>
</g>
<g>
	<g>
		<path d="M408,0h-32c-1.728,0-3.416,0.56-4.8,1.6L277.336,72h-74.672L108.8,1.6C107.416,0.56,105.728,0,104,0H72
			c-4.416,0-8,3.584-8,8v208c0,4.416,3.584,8,8,8h32c1.728,0,3.416-0.56,4.8-1.6l93.864-70.4H232v40h-56c-4.416,0-8,3.584-8,8v104
			H80c-4.416,0-8,3.584-8,8v160c0,4.416,3.584,8,8,8h96h40h48h40h96c4.416,0,8-3.584,8-8V312c0-4.416-3.584-8-8-8h-88V200
			c0-4.416-3.584-8-8-8h-56v-40h29.336l93.864,70.4c1.384,1.04,3.072,1.6,4.8,1.6h32c4.416,0,8-3.584,8-8V8
			C416,3.584,412.416,0,408,0z M192,140l-90.664,68H80V16h16v72h16V24l80,60V140z M168,464H88V320h80V464z M312,320h80v144h-80V320z
			 M208,136V88h24v48H208z M256,464h-32v-48h32V464z M296,208v104v152h-24v-48h8v-16h-16h-48h-16v16h8v48h-24V312V208H296z M272,136
			h-24V88h24V136z M400,208h-21.336L288,140V84l80-60v64h16V16h16V208z"/>
	</g>
</g>
<g>
	<g>
		<rect x="440" y="96" width="40" height="16"/>
	</g>
</g>
<g>
	<g>
		<rect x="433.362" y="48.049" transform="matrix(0.7071 -0.7071 0.7071 0.7071 93.9241 338.8498)" width="45.256" height="16"/>
	</g>
</g>
<g>
	<g>
		<rect x="447.992" y="129.365" transform="matrix(0.7071 -0.7071 0.7071 0.7071 26.0815 366.9524)" width="16" height="45.256"/>
	</g>
</g>
<g>
	<g>
		<rect y="96" width="40" height="16"/>
	</g>
</g>
<g>
	<g>
		<rect x="16.006" y="33.378" transform="matrix(0.7071 -0.7071 0.7071 0.7071 -32.5711 33.3786)" width="16" height="45.256"/>
	</g>
</g>
<g>
	<g>
		<rect x="1.372" y="143.994" transform="matrix(0.7071 -0.7071 0.7071 0.7071 -100.4466 61.4883)" width="45.256" height="16"/>
	</g>
</g>
<g>
	<g>
		<rect x="368" y="104" width="16" height="16"/>
	</g>
</g>
<g>
	<g>
		<rect x="96" y="104" width="16" height="16"/>
	</g>
</g>
<g>
	<g>
		<rect x="96" y="136" width="16" height="16"/>
	</g>
</g>
<g>
</g>
<g>
</g>
<g>
</g>
<g>
</g>
<g>
</g>
<g>
</g>
<g>
</g>
<g>
</g>
<g>
</g>
<g>
</g>
<g>
</g>
<g>
</g>
<g>
</g>
<g>
</g>
<g>
</g>
</svg>
