<?xml version="1.0" encoding="iso-8859-1"?>
<!-- Generator: Adobe Illustrator 19.0.0, SVG Export Plug-In . SVG Version: 6.00 Build 0)  -->
<svg version="1.1" id="Capa_1" xmlns="http://www.w3.org/2000/svg" xmlns:xlink="http://www.w3.org/1999/xlink" x="0px" y="0px"
	 viewBox="0 0 464 464" style="enable-background:new 0 0 464 464;" xml:space="preserve">
<g>
	<g>
		<rect x="223.991" width="16" height="16"/>
	</g>
</g>
<g>
	<g>
		<rect x="223.991" y="32" width="16" height="16"/>
	</g>
</g>
<g>
	<g>
		<rect x="223.991" y="64" width="16" height="16"/>
	</g>
</g>
<g>
	<g>
		<rect x="223.991" y="96" width="16" height="16"/>
	</g>
</g>
<g>
	<g>
		<rect x="223.991" y="128" width="16" height="16"/>
	</g>
</g>
<g>
	<g>
		<rect x="223.991" y="160" width="16" height="16"/>
	</g>
</g>
<g>
	<g>
		<rect x="223.991" y="192" width="16" height="16"/>
	</g>
</g>
<g>
	<g>
		<rect x="223.991" y="224" width="16" height="16"/>
	</g>
</g>
<g>
	<g>
		<rect x="223.991" y="256" width="16" height="16"/>
	</g>
</g>
<g>
	<g>
		<rect x="223.991" y="288" width="16" height="16"/>
	</g>
</g>
<g>
	<g>
		<rect x="223.991" y="320" width="16" height="16"/>
	</g>
</g>
<g>
	<g>
		<rect x="223.991" y="352" width="16" height="16"/>
	</g>
</g>
<g>
	<g>
		<rect x="223.991" y="384" width="16" height="16"/>
	</g>
</g>
<g>
	<g>
		<rect x="223.991" y="416" width="16" height="16"/>
	</g>
</g>
<g>
	<g>
		<rect x="223.991" y="448" width="16" height="16"/>
	</g>
</g>
<g>
	<g>
		<path d="M103.991,8c-22.091,0-40,17.909-40,40s17.909,40,40,40c22.08-0.026,39.974-17.92,40-40
			C143.991,25.909,126.083,8,103.991,8z M103.991,72c-13.255,0-24-10.745-24-24s10.745-24,24-24s24,10.745,24,24
			S117.246,72,103.991,72z"/>
	</g>
</g>
<g>
	<g>
		<path d="M103.991,104c-39.765,0-72,32.235-72,72v104c0,4.418,3.582,8,8,8h16v160c0,4.418,3.582,8,8,8h80c4.418,0,8-3.582,8-8V288
			h16c4.418,0,8-3.582,8-8V176C175.991,136.235,143.756,104,103.991,104z M159.991,272h-16c-4.418,0-8,3.582-8,8v160h-24V304h-16
			v136h-24V280c0-4.418-3.582-8-8-8h-16v-96c0.035-30.913,25.087-55.965,56-56c30.913,0.035,55.965,25.087,56,56V272z"/>
	</g>
</g>
<g>
	<g>
		<path d="M359.991,8c-22.091,0-40,17.909-40,40s17.909,40,40,40c22.08-0.026,39.974-17.92,40-40
			C399.991,25.909,382.083,8,359.991,8z M359.991,72c-13.255,0-24-10.745-24-24s10.745-24,24-24s24,10.745,24,24
			S373.246,72,359.991,72z"/>
	</g>
</g>
<g>
	<g>
		<path d="M431.991,351.472l-12.8-192.112c-2.151-32.682-30.388-57.432-63.07-55.282c-29.684,1.954-53.328,25.597-55.282,55.282
			h-0.048l-12.8,192.112c-0.292,4.409,3.046,8.219,7.455,8.511c0.182,0.012,0.364,0.018,0.545,0.017h16v88c0,4.418,3.582,8,8,8h80
			c4.418,0,8-3.582,8-8v-88h16c4.418,0.01,8.008-3.564,8.017-7.983C432.009,351.835,432.003,351.654,431.991,351.472z M399.991,344
			c-4.418,0-8,3.582-8,8v88h-24v-64h-16v64h-24v-88c0-4.418-3.582-8-8-8h-15.448l12.248-183.576
			c1.569-22.719,20.427-40.365,43.2-40.424c22.773,0.059,41.631,17.705,43.2,40.424L415.439,344H399.991z"/>
	</g>
</g>
<g>
	<g>
		<rect x="351.991" y="344" width="16" height="16"/>
	</g>
</g>
<g>
	<g>
		<rect x="95.991" y="272" width="16" height="16"/>
	</g>
</g>
<g>
</g>
<g>
</g>
<g>
</g>
<g>
</g>
<g>
</g>
<g>
</g>
<g>
</g>
<g>
</g>
<g>
</g>
<g>
</g>
<g>
</g>
<g>
</g>
<g>
</g>
<g>
</g>
<g>
</g>
</svg>
